<?xml version="1.0" encoding="utf-8"?>

<!DOCTYPE svg PUBLIC "-//W3C//DTD SVG 1.1//EN" "http://www.w3.org/Graphics/SVG/1.1/DTD/svg11.dtd">
<!-- Uploaded to: SVG Repo, www.svgrepo.com, Generator: SVG Repo Mixer Tools -->
<svg height="800px" width="800px" version="1.1" id="_x32_" xmlns="http://www.w3.org/2000/svg" xmlns:xlink="http://www.w3.org/1999/xlink" 
	 viewBox="0 0 512 512"  xml:space="preserve">
<style type="text/css">
	.st0{fill:#000000;}
</style>
<g>
	<path class="st0" d="M411.104,208.978c-10.942-16.762-25.103-30.134-40.962-38.938l-17.002-76.94
		c0.715-0.61,1.422-1.228,2.138-1.87c17.713-16.063,27.081-36.572,27.081-59.325V0h-31.902h-94.462h-94.458h-31.902v31.906
		c0,22.753,9.364,43.262,27.086,59.325c0.715,0.642,1.422,1.259,2.13,1.87l-16.998,76.94c-15.856,8.804-30.016,22.176-40.958,38.938
		c-13.36,20.452-21.022,44.749-21.022,66.649v31.898h31.902h121.275v151.678L255.996,512l22.952-52.798V307.525h121.268h31.91
		v-31.898C432.125,253.728,424.463,229.43,411.104,208.978z M111.777,275.627c0-31.459,22.968-72.12,57.748-82.94l25.229-114.179
		c0,0-33.216-13.592-33.216-46.603h94.458h94.462c0,33.011-33.21,46.603-33.21,46.603l25.228,114.179
		c34.78,10.82,57.74,51.481,57.74,82.94H111.777z"/>
</g>
</svg>